<?xml version="1.0" encoding="UTF-8" standalone="no"?>
<!-- Created with Inkscape (http://www.inkscape.org/) -->

<svg
   xmlns:dc="http://purl.org/dc/elements/1.1/"
   xmlns:cc="http://creativecommons.org/ns#"
   xmlns:rdf="http://www.w3.org/1999/02/22-rdf-syntax-ns#"
   xmlns:svg="http://www.w3.org/2000/svg"
   xmlns="http://www.w3.org/2000/svg"
   xmlns:sodipodi="http://sodipodi.sourceforge.net/DTD/sodipodi-0.dtd"
   xmlns:inkscape="http://www.inkscape.org/namespaces/inkscape"
   width="10.178507mm"
   height="10.025371mm"
   viewBox="0 0 10.178507 10.025371"
   version="1.1"
   id="svg8"
   sodipodi:docname="Logoconfiguracionnegro.svg"
   inkscape:version="0.92.3 (2405546, 2018-03-11)">
  <defs
     id="defs2">
    <inkscape:path-effect
       effect="spiro"
       id="path-effect817"
       is_visible="true" />
  </defs>
  <sodipodi:namedview
     id="base"
     pagecolor="#ffffff"
     bordercolor="#666666"
     borderopacity="1.0"
     inkscape:pageopacity="0.0"
     inkscape:pageshadow="2"
     inkscape:zoom="2.8"
     inkscape:cx="98.301886"
     inkscape:cy="29.262659"
     inkscape:document-units="mm"
     inkscape:current-layer="layer1"
     showgrid="false"
     inkscape:window-width="1300"
     inkscape:window-height="745"
     inkscape:window-x="-8"
     inkscape:window-y="-8"
     inkscape:window-maximized="1" />
  <metadata
     id="metadata5">
    <rdf:RDF>
      <cc:Work
         rdf:about="">
        <dc:format>image/svg+xml</dc:format>
        <dc:type
           rdf:resource="http://purl.org/dc/dcmitype/StillImage" />
        <dc:title></dc:title>
      </cc:Work>
    </rdf:RDF>
  </metadata>
  <g
     inkscape:label="Capa 1"
     inkscape:groupmode="layer"
     id="layer1"
     transform="translate(-75.944065,-123.35406)">
    <path
       style="opacity:1;vector-effect:none;fill:#ffffff;fill-opacity:1;stroke:#000000;stroke-width:0.83810568;stroke-linecap:butt;stroke-linejoin:miter;stroke-miterlimit:4;stroke-dasharray:none;stroke-dashoffset:0;stroke-opacity:1"
       d="m 80.943506,123.77343 c -0.37781,-0.005 -0.68006,0.34194 -0.66629,0.71109 -0.0181,0.21868 -0.0228,0.43814 -0.0344,0.65723 -0.32584,0.0844 -0.62599,0.24107 -0.92999,0.3813 -0.33887,-0.28215 -0.60114,-0.7148 -1.04343,-0.84392 -0.52923,-0.0955 -0.9971,0.57721 -0.70001,1.03092 0.21888,0.28261 0.48284,0.5256 0.7298,0.78282 -0.20251,0.37112 -0.38598,0.75504 -0.49777,1.16428 -0.42321,0.0575 -0.9759,-0.0756 -1.28037,0.31093 -0.30972,0.35728 -0.11474,0.98537 0.35121,1.09005 0.30912,0.0646 0.62845,0.0268 0.94168,0.0388 0.0924,0.389 0.25876,0.75429 0.44836,1.10454 -0.27903,0.3318 -0.6822,0.58632 -0.85652,0.99411 -0.14226,0.42816 0.23421,0.89066 0.67677,0.87205 0.41113,0.0208 0.63904,-0.40184 0.92177,-0.62806 0.15402,-0.24165 0.34088,-0.28051 0.56407,-0.095 0.23224,0.1124 0.47012,0.21928 0.72414,0.27181 0.0379,0.40439 -0.0654,0.93747 0.32556,1.20682 0.38154,0.30044 1.05139,0.0389 1.07814,-0.4633 0.0373,-0.23337 0.02,-0.47072 0.025,-0.70588 0.42614,-0.10435 0.82754,-0.28553 1.2112,-0.49544 0.3305,0.28295 0.59036,0.72682 1.04019,0.82922 0.44818,0.0856 0.85443,-0.36061 0.79406,-0.79429 -0.14511,-0.44527 -0.56308,-0.72631 -0.85124,-1.07459 0.21436,-0.35864 0.32741,-0.7642 0.45832,-1.15764 0.32149,-0.0351 0.66812,0.0129 0.97495,-0.1007 0.34382,-0.20751 0.46872,-0.69424 0.22116,-1.02292 -0.25171,-0.38981 -0.76566,-0.26874 -1.15491,-0.29595 -0.2028,0.0516 -0.15161,-0.23109 -0.23506,-0.3502 -0.12186,-0.30021 -0.27412,-0.58844 -0.45929,-0.85455 0.26965,-0.32192 0.67917,-0.57193 0.80598,-0.99109 0.0979,-0.36259 -0.14147,-0.75077 -0.50381,-0.83714 -0.37148,-0.11797 -0.67465,0.18002 -0.90867,0.42375 -0.18295,0.1479 -0.32958,0.38411 -0.5516,0.46543 -0.28003,-0.13538 -0.57728,-0.23706 -0.8799,-0.30911 -0.008,-0.4114 0.0751,-0.96521 -0.34487,-1.21452 -0.11798,-0.0709 -0.25692,-0.10475 -0.3942,-0.10085 z m 0.1532,2.67441 c 1.05988,-0.007 1.98552,1.00523 1.8955,2.05602 -0.0509,1.09564 -1.18223,1.98933 -2.25574,1.76848 -1.05917,-0.17927 -1.85931,-1.35109 -1.52637,-2.39516 0.22377,-0.83085 1.02324,-1.44762 1.88661,-1.42934 z"
       id="path909"
       inkscape:connector-curvature="0" />
  </g>
</svg>
