<?xml version="1.0" encoding="UTF-8" standalone="no"?>
<!-- Created with Inkscape (http://www.inkscape.org/) -->

<svg
   xmlns:dc="http://purl.org/dc/elements/1.1/"
   xmlns:cc="http://creativecommons.org/ns#"
   xmlns:rdf="http://www.w3.org/1999/02/22-rdf-syntax-ns#"
   xmlns:svg="http://www.w3.org/2000/svg"
   xmlns="http://www.w3.org/2000/svg"
   xmlns:sodipodi="http://sodipodi.sourceforge.net/DTD/sodipodi-0.dtd"
   xmlns:inkscape="http://www.inkscape.org/namespaces/inkscape"
   width="32.330296mm"
   height="31.795761mm"
   viewBox="0 0 32.330296 31.795761"
   version="1.1"
   id="svg8"
   sodipodi:docname="Logoconfiguracion.svg"
   inkscape:version="0.92.3 (2405546, 2018-03-11)">
  <defs
     id="defs2">
    <inkscape:path-effect
       effect="spiro"
       id="path-effect817"
       is_visible="true" />
  </defs>
  <sodipodi:namedview
     id="base"
     pagecolor="#ffffff"
     bordercolor="#666666"
     borderopacity="1.0"
     inkscape:pageopacity="0.0"
     inkscape:pageshadow="2"
     inkscape:zoom="1.979899"
     inkscape:cx="33.79583"
     inkscape:cy="53.251661"
     inkscape:document-units="mm"
     inkscape:current-layer="layer1"
     showgrid="false"
     inkscape:window-width="1300"
     inkscape:window-height="745"
     inkscape:window-x="-8"
     inkscape:window-y="-8"
     inkscape:window-maximized="1" />
  <metadata
     id="metadata5">
    <rdf:RDF>
      <cc:Work
         rdf:about="">
        <dc:format>image/svg+xml</dc:format>
        <dc:type
           rdf:resource="http://purl.org/dc/dcmitype/StillImage" />
        <dc:title></dc:title>
      </cc:Work>
    </rdf:RDF>
  </metadata>
  <g
     inkscape:label="Capa 1"
     inkscape:groupmode="layer"
     id="layer1"
     transform="translate(-65.585919,-114.09207)">
    <path
       style="fill:none;fill-opacity:1;stroke:#0c345c;stroke-width:4.80000019;stroke-linecap:butt;stroke-linejoin:miter;stroke-miterlimit:4;stroke-dasharray:none;stroke-opacity:1"
       d="m 72.747805,130.04928 c 0,2.38596 0.98221,4.75722 2.669337,6.44435 1.687126,1.68712 4.058391,2.66934 6.444348,2.66934 2.385957,0 4.757222,-0.98222 6.444348,-2.66934 1.687127,-1.68713 2.669337,-4.05839 2.669337,-6.44435 0,-2.38596 -0.98221,-4.75722 -2.669337,-6.44435 -1.687126,-1.68712 -4.058391,-2.66934 -6.444348,-2.66934 -2.385957,0 -4.757222,0.98222 -6.444348,2.66934 -1.687127,1.68713 -2.669337,4.05839 -2.669337,6.44435 z"
       id="path815"
       inkscape:connector-curvature="0"
       inkscape:path-effect="#path-effect817"
       inkscape:original-d="m 72.747805,130.04928 c -6.075877,9e-5 12.151668,-9e-5 18.22737,0 6.075701,9e-5 -12.151493,-9e-5 -18.22737,0 z" />
    <path
       style="fill:none;fill-opacity:1;stroke:#0c345c;stroke-width:4.80000019;stroke-linecap:round;stroke-linejoin:miter;stroke-miterlimit:4;stroke-dasharray:none;stroke-opacity:1"
       d="M 81.58402,119.86712 81.5172,116.52625"
       id="path829"
       inkscape:connector-curvature="0"
       sodipodi:nodetypes="cc" />
    <path
       style="fill:none;fill-opacity:1;stroke:#0c345c;stroke-width:4.80000019;stroke-linecap:round;stroke-linejoin:miter;stroke-miterlimit:4;stroke-dasharray:none;stroke-opacity:1"
       d="m 81.684251,143.45366 -0.06682,-3.34087"
       id="path829-6"
       inkscape:connector-curvature="0"
       sodipodi:nodetypes="cc" />
    <path
       style="fill:none;fill-opacity:1;stroke:#0c345c;stroke-width:4.80000019;stroke-linecap:round;stroke-linejoin:miter;stroke-miterlimit:4;stroke-dasharray:none;stroke-opacity:1"
       d="m 71.360964,130.05677 -3.34087,0.0668"
       id="path829-0"
       inkscape:connector-curvature="0"
       sodipodi:nodetypes="cc" />
    <path
       style="fill:none;fill-opacity:1;stroke:#0c345c;stroke-width:4.80000019;stroke-linecap:round;stroke-linejoin:miter;stroke-miterlimit:4;stroke-dasharray:none;stroke-opacity:1"
       d="m 92.141169,129.65587 3.34087,-0.0668"
       id="path829-3"
       inkscape:connector-curvature="0"
       sodipodi:nodetypes="cc" />
    <path
       style="fill:#ffa500;fill-opacity:1;stroke:#0c345c;stroke-width:4.80000019;stroke-linecap:round;stroke-linejoin:miter;stroke-miterlimit:4;stroke-dasharray:none;stroke-opacity:1"
       d="m 74.202409,122.0611 -2.34202,-2.38345"
       id="path829-8"
       inkscape:connector-curvature="0"
       sodipodi:nodetypes="cc" />
    <path
       style="fill:none;fill-opacity:1;stroke:#0c345c;stroke-width:4.80000019;stroke-linecap:round;stroke-linejoin:miter;stroke-miterlimit:4;stroke-dasharray:none;stroke-opacity:1"
       d="m 92.243101,140.16862 -2.34202,-2.38345"
       id="path829-8-1"
       inkscape:connector-curvature="0"
       sodipodi:nodetypes="cc" />
    <path
       style="fill:none;fill-opacity:1;stroke:#0c345c;stroke-width:4.80000019;stroke-linecap:round;stroke-linejoin:miter;stroke-miterlimit:4;stroke-dasharray:none;stroke-opacity:1"
       d="m 89.16609,121.39293 2.34202,-2.38345"
       id="path829-8-5"
       inkscape:connector-curvature="0"
       sodipodi:nodetypes="cc" />
    <path
       style="fill:none;fill-opacity:1;stroke:#0c345c;stroke-width:4.80000019;stroke-linecap:round;stroke-linejoin:miter;stroke-miterlimit:4;stroke-dasharray:none;stroke-opacity:1"
       d="m 71.526301,140.43589 2.34202,-2.38345"
       id="path829-8-5-5"
       inkscape:connector-curvature="0"
       sodipodi:nodetypes="cc" />
    <path
       style="opacity:1;vector-effect:none;fill:#ffffff;fill-opacity:1;stroke:none;stroke-width:0.51020408;stroke-linecap:butt;stroke-linejoin:miter;stroke-miterlimit:4;stroke-dasharray:none;stroke-dashoffset:0;stroke-opacity:1"
       d="M 59.887954,0.12831086 C 54.947086,0.06073135 50.994288,4.6001584 51.174398,9.4278305 50.937987,12.287726 50.875651,15.157751 50.724567,18.023005 46.463239,19.127021 42.537954,21.175636 38.562289,23.009647 34.13051,19.319706 30.700676,13.661583 24.916352,11.972941 c -6.921084,-1.248447 -13.039849,7.548693 -9.154508,13.482183 2.86241,3.696014 6.314431,6.873698 9.544167,10.237659 -2.648403,4.853492 -5.047798,9.87434 -6.509763,15.226275 -5.534679,0.751392 -12.7627549,-0.988287 -16.7444621,4.066258 -4.0505735,4.672441 -1.50056049,12.886572 4.5930374,14.255581 4.0426177,0.844442 8.2187897,0.350043 12.3151797,0.507046 1.207815,5.087194 3.384004,9.864433 5.86362,14.444985 -3.649157,4.339282 -8.921824,7.667871 -11.201447,13.000784 -1.86048,5.599498 3.062878,11.647928 8.850672,11.404658 5.376685,0.27192 8.357268,-5.2553 12.054738,-8.21375 2.014248,-3.160295 4.457969,-3.668407 7.37687,-1.242046 3.03714,1.470046 6.148198,2.867706 9.4702,3.554696 0.49597,5.28856 -0.854892,12.26017 4.257631,15.78264 4.989664,3.9291 13.749944,0.50887 14.099719,-6.05894 0.487566,-3.05195 0.260872,-6.15605 0.326522,-9.23145 5.572966,-1.36469 10.822441,-3.734127 15.839864,-6.479181 4.322326,3.700371 7.720651,9.505181 13.603522,10.844341 5.861186,1.11933 11.174056,-4.71602 10.384646,-10.387606 -1.89776,-5.823216 -7.36389,-9.4986 -11.132396,-14.053348 2.803346,-4.690269 4.281736,-9.994035 5.993826,-15.139464 4.20437,-0.458468 8.73761,0.168276 12.75023,-1.316951 4.49641,-2.71381 6.12983,-9.07915 2.89235,-13.377612 -3.29186,-5.097829 -10.01322,-3.514472 -15.10386,-3.87036 -2.65214,0.674949 -1.98269,-3.02218 -3.07396,-4.579805 -1.59377,-3.92617 -3.584906,-7.695589 -6.006655,-11.175799 3.526457,-4.210015 8.882115,-7.479504 10.540505,-12.961323 1.28083,-4.741832 -1.85011,-9.818448 -6.58868,-10.9479225 -4.85815,-1.5428463 -8.823024,2.3542065 -11.883457,5.5417345 -2.392587,1.934131 -4.310185,5.023367 -7.213752,6.086858 C 77.398473,19.602501 73.511129,18.272736 69.553452,17.330498 69.442598,11.950264 70.535977,4.7076609 65.043282,1.4472308 63.500411,0.51960133 61.683404,0.07735801 59.887954,0.12831086 Z M 61.891485,35.103857 C 75.752566,35.007874 87.85785,48.250188 86.680669,61.992265 86.014792,76.320905 71.219618,88.00836 57.180417,85.120126 43.328756,82.775704 32.864557,67.450745 37.218708,53.796609 40.14522,42.930831 50.600535,34.864795 61.891485,35.103857 Z"
       id="path909"
       inkscape:connector-curvature="0"
       transform="matrix(0.26458333,0,0,0.26458333,65.585919,114.09207)" />
  </g>
</svg>
