<?xml version="1.0" encoding="UTF-8" standalone="no"?>
<!-- Created with Inkscape (http://www.inkscape.org/) -->

<svg
   xmlns:dc="http://purl.org/dc/elements/1.1/"
   xmlns:cc="http://creativecommons.org/ns#"
   xmlns:rdf="http://www.w3.org/1999/02/22-rdf-syntax-ns#"
   xmlns:svg="http://www.w3.org/2000/svg"
   xmlns="http://www.w3.org/2000/svg"
   xmlns:sodipodi="http://sodipodi.sourceforge.net/DTD/sodipodi-0.dtd"
   xmlns:inkscape="http://www.inkscape.org/namespaces/inkscape"
   width="132.269mm"
   height="138.93077mm"
   viewBox="0 0 132.269 138.93077"
   version="1.1"
   id="svg1190"
   inkscape:version="0.92.3 (2405546, 2018-03-11)"
   sodipodi:docname="Campana1gamv.svg">
  <defs
     id="defs1184" />
  <sodipodi:namedview
     id="base"
     pagecolor="#ffffff"
     bordercolor="#666666"
     borderopacity="1.0"
     inkscape:pageopacity="0.0"
     inkscape:pageshadow="2"
     inkscape:zoom="0.35"
     inkscape:cx="389.95717"
     inkscape:cy="256.83205"
     inkscape:document-units="mm"
     inkscape:current-layer="layer1"
     showgrid="false"
     inkscape:window-width="1273"
     inkscape:window-height="745"
     inkscape:window-x="-8"
     inkscape:window-y="-8"
     inkscape:window-maximized="1" />
  <metadata
     id="metadata1187">
    <rdf:RDF>
      <cc:Work
         rdf:about="">
        <dc:format>image/svg+xml</dc:format>
        <dc:type
           rdf:resource="http://purl.org/dc/dcmitype/StillImage" />
        <dc:title></dc:title>
      </cc:Work>
    </rdf:RDF>
  </metadata>
  <g
     inkscape:label="Capa 1"
     inkscape:groupmode="layer"
     id="layer1"
     transform="translate(-2.6571667,-77.856038)">
    <ellipse
       style="fill:#2d527c;fill-opacity:1;fill-rule:evenodd;stroke-width:0.26458332"
       id="path150"
       cx="105.02302"
       cy="28.586086"
       rx="12.428033"
       ry="3.6081386"
       transform="rotate(45.828285)" />
    <path
       style="opacity:1;vector-effect:none;fill:#2d527c;fill-opacity:1;stroke:none;stroke-width:0.26998299;stroke-linecap:butt;stroke-linejoin:miter;stroke-miterlimit:4;stroke-dasharray:none;stroke-dashoffset:0;stroke-opacity:1"
       d="m 14.353287,216.64812 -11.6961203,-0.0725 0.67671,-1.33543 c 0.84634,-1.67017 1.63162,-4.94229 2.01496,-8.396 0.3587501,-3.23209 1.03553,-4.70286 2.9243901,-6.35518 4.1826002,-3.65884 12.9077202,-6.02875 26.9969792,-7.33291 3.767082,-0.34869 7.85613,-0.46218 17.171932,-0.47658 l 12.227459,-0.0189 1.3e-4,-2.83364 1.3e-4,-2.83365 -24.485389,-0.13944 c -20.382011,-0.11606 -24.524411,-0.20106 -24.718331,-0.50721 -0.55485,-0.87597 -0.0944,-11.02426 0.72612,-16.00305 2.99533,-18.17555 12.71631,-31.33934 28.833279,-39.04497 5.314101,-2.5407 10.185332,-4.07219 16.437081,-5.16771 l 3.34087,-0.58544 v -2.92421 -2.9242 l -4.12669,-1.5419 c -4.488529,-1.6771 -5.303438,-2.15984 -4.759079,-2.81924 0.490529,-0.59421 4.373171,-2.87586 7.33748,-3.66915 2.675639,-0.71602 2.14707,-0.1268 5.661809,-0.0253 l 3.637301,-0.15664 3.748241,1.23874 c 4.201678,1.38859 5.472549,2.04031 5.472549,2.8064 0,0.62303 -1.40911,1.32839 -5.955059,2.98095 l -3.14874,1.14464 0.0751,2.94952 0.0751,2.94952 3.073601,0.58533 c 13.102651,2.49526 21.965309,6.58557 29.39965,13.56858 9.45726,8.88312 14.92859,20.35096 16.59255,34.77773 0.33106,2.87031 0.48782,11.73935 0.21238,12.01532 -0.0917,0.0919 -11.18671,0.24189 -24.655619,0.3334 l -24.488921,0.16638 -1.11e-4,2.82962 -10e-5,2.82961 8.872622,-0.092 c 25.038849,-0.25956 41.346989,2.47964 47.615999,7.99785 1.71903,1.51315 2.4726,3.26849 2.84386,6.62435 0.37232,3.36552 1.0771,6.22079 1.97085,7.98451 l 0.66791,1.31806 -23.67981,0.17755 c -21.793769,0.16341 -68.633142,0.15237 -96.893141,-0.0228 z m 91.676523,-6.92303 16.63753,-0.17549 v -0.65329 c 0,-4.45699 -8.48478,-7.10237 -25.925141,-8.08292 -6.823501,-0.38364 -55.911872,-0.18603 -60.402912,0.24315 -14.52062,1.38766 -21.38157,3.87083 -21.38157,7.7386 v 0.83708 l 6.88219,0.0375 c 3.78521,0.0206 13.918061,0.12645 22.517461,0.23516 15.559839,0.19669 29.960491,0.15471 61.672442,-0.17979 z m 8.61942,-30.61472 c 8e-5,-1.32183 -0.90834,-7.13969 -1.51493,-9.70221 -3.39198,-14.3292 -11.18906,-24.81231 -22.765091,-30.60747 -5.204751,-2.60559 -11.965832,-4.44773 -18.647931,-5.08086 -2.995409,-0.28381 -3.843081,-0.26767 -6.516891,0.1241 -17.16114,2.51451 -30.446679,11.35497 -37.13939,24.71328 -2.4441,4.8783 -4.12831,10.82187 -4.8167,16.99815 -0.14746,1.32298 -0.2691,2.76624 -0.27031,3.20723 l -0.002,0.80181 h 45.83671 c 42.949363,0 45.836703,-0.0286 45.836733,-0.45403 z"
       id="path981"
       inkscape:connector-curvature="0"
       sodipodi:nodetypes="ccsscsccccscssscccscsccssscccssscscccsssccsccscssssccsscssssssccscc" />
    <ellipse
       style="fill:#2d527c;fill-opacity:1;fill-rule:evenodd;stroke-width:0.26458332"
       id="path150-0"
       cx="9.5154743"
       cy="128.4675"
       rx="12.428033"
       ry="3.6081386"
       transform="matrix(-0.6968111,0.71725469,0.71725469,0.6968111,0,0)" />
    <ellipse
       style="fill:#2d527c;fill-opacity:1;fill-rule:evenodd;stroke-width:0.26458332"
       id="path150-3"
       cx="96.233032"
       cy="-59.751343"
       rx="12.428033"
       ry="3.6081386"
       transform="rotate(84.643093)" />
    <ellipse
       style="fill:#2d527c;fill-opacity:1;fill-rule:evenodd;stroke-width:0.18755446"
       id="path150-05"
       cx="113.44237"
       cy="201.99666"
       rx="10.330657"
       ry="2.1811602"
       transform="matrix(0.99940142,0.03459484,-0.06551302,0.99785171,0,0)" />
    <ellipse
       style="fill:#2d527c;fill-opacity:1;fill-rule:evenodd;stroke-width:0.18755446"
       id="path150-05-7"
       cx="99.546982"
       cy="105.34158"
       rx="10.330657"
       ry="2.1811602"
       transform="matrix(0.99940142,0.03459484,-0.06551302,0.99785171,0,0)" />
    <ellipse
       style="fill:#2d527c;fill-opacity:1;fill-rule:evenodd;stroke-width:0.18755446"
       id="path150-05-7-3"
       cx="54.550804"
       cy="105.93504"
       rx="10.330657"
       ry="2.1811602"
       transform="matrix(0.99940142,0.03459484,-0.06551302,0.99785171,0,0)"
       inkscape:transform-center-x="-10.609052"
       inkscape:transform-center-y="19.932159" />
  </g>
</svg>
