<?xml version="1.0" encoding="UTF-8" standalone="no"?>
<!-- Created with Inkscape (http://www.inkscape.org/) -->

<svg
   xmlns:dc="http://purl.org/dc/elements/1.1/"
   xmlns:cc="http://creativecommons.org/ns#"
   xmlns:rdf="http://www.w3.org/1999/02/22-rdf-syntax-ns#"
   xmlns:svg="http://www.w3.org/2000/svg"
   xmlns="http://www.w3.org/2000/svg"
   xmlns:sodipodi="http://sodipodi.sourceforge.net/DTD/sodipodi-0.dtd"
   xmlns:inkscape="http://www.inkscape.org/namespaces/inkscape"
   width="132.269mm"
   height="146.72733mm"
   viewBox="0 0 132.269 146.72733"
   version="1.1"
   id="svg1007"
   inkscape:version="0.92.3 (2405546, 2018-03-11)"
   sodipodi:docname="Campana2gamv.svg">
  <defs
     id="defs1001" />
  <sodipodi:namedview
     id="base"
     pagecolor="#ffffff"
     bordercolor="#666666"
     borderopacity="1.0"
     inkscape:pageopacity="0.0"
     inkscape:pageshadow="2"
     inkscape:zoom="0.35"
     inkscape:cx="369.95717"
     inkscape:cy="231.56569"
     inkscape:document-units="mm"
     inkscape:current-layer="layer1"
     showgrid="false"
     inkscape:window-width="1273"
     inkscape:window-height="745"
     inkscape:window-x="-8"
     inkscape:window-y="-8"
     inkscape:window-maximized="1" />
  <metadata
     id="metadata1004">
    <rdf:RDF>
      <cc:Work
         rdf:about="">
        <dc:format>image/svg+xml</dc:format>
        <dc:type
           rdf:resource="http://purl.org/dc/dcmitype/StillImage" />
        <dc:title></dc:title>
      </cc:Work>
    </rdf:RDF>
  </metadata>
  <g
     inkscape:label="Capa 1"
     inkscape:groupmode="layer"
     id="layer1"
     transform="translate(-7.9488333,-63.374423)">
    <path
       style="opacity:1;vector-effect:none;fill:#2d527c;fill-opacity:1;stroke:none;stroke-width:0.26998299;stroke-linecap:butt;stroke-linejoin:miter;stroke-miterlimit:4;stroke-dasharray:none;stroke-dashoffset:0;stroke-opacity:1"
       d="m 19.644953,209.96307 -11.6961197,-0.0725 0.67671,-1.33543 c 0.84634,-1.67017 1.6316197,-4.94229 2.0149597,-8.396 0.35875,-3.23209 1.03553,-4.70286 2.92439,-6.35518 4.1826,-3.65884 12.90772,-6.02875 26.996979,-7.33291 3.767082,-0.34869 7.85613,-0.46218 17.171932,-0.47658 l 12.227459,-0.0189 1.3e-4,-2.83364 1.3e-4,-2.83365 -24.485389,-0.13944 c -20.382011,-0.11606 -24.524411,-0.20106 -24.718331,-0.50721 -0.55485,-0.87597 -0.0944,-11.02426 0.72612,-16.00305 2.99533,-18.17555 12.71631,-31.33934 28.833279,-39.04497 5.314101,-2.5407 10.185332,-4.07219 16.437081,-5.16771 l 3.34087,-0.58544 v -2.92421 -2.9242 l -4.12669,-1.5419 c -4.488529,-1.6771 -5.303438,-2.15984 -4.759079,-2.81924 0.490529,-0.59421 4.373171,-2.87586 7.33748,-3.66915 2.675639,-0.71602 2.14707,-0.1268 5.661809,-0.0253 l 3.637301,-0.15664 3.748241,1.23874 c 4.201678,1.38859 5.472549,2.04031 5.472549,2.8064 0,0.62303 -1.40911,1.32839 -5.955059,2.98095 l -3.14874,1.14464 0.0751,2.94952 0.0751,2.94952 3.073601,0.58533 c 13.102651,2.49526 21.965314,6.58557 29.399644,13.56858 9.45726,8.88312 14.92859,20.35096 16.59255,34.77772 0.33106,2.87031 0.48782,11.73935 0.21238,12.01532 -0.0917,0.0919 -11.18671,0.24189 -24.65561,0.3334 l -24.488924,0.16638 -1.11e-4,2.82962 -1e-4,2.82961 8.872622,-0.092 c 25.038843,-0.25956 41.346983,2.47964 47.615993,7.99785 1.71903,1.51315 2.4726,3.26849 2.84386,6.62435 0.37232,3.36552 1.0771,6.22079 1.97085,7.98451 l 0.66791,1.31806 -23.67981,0.17755 c -21.793763,0.16341 -68.633136,0.15237 -96.893135,-0.0228 z m 91.676517,-6.92303 16.63753,-0.17549 v -0.65329 c 0,-4.45699 -8.48478,-7.10237 -25.92513,-8.08292 -6.823506,-0.38364 -55.911877,-0.18603 -60.402917,0.24315 -14.52062,1.38766 -21.38157,3.87083 -21.38157,7.7386 v 0.83708 l 6.88219,0.0375 c 3.78521,0.0206 13.918061,0.12645 22.517461,0.23516 15.559839,0.19669 29.960491,0.15471 61.672436,-0.17979 z m 8.61942,-30.61472 c 8e-5,-1.32183 -0.90834,-7.13969 -1.51493,-9.70221 -3.39198,-14.3292 -11.18906,-24.81231 -22.765085,-30.60747 -5.204751,-2.60559 -11.965832,-4.44773 -18.647931,-5.08086 -2.995409,-0.28381 -3.843081,-0.26767 -6.516891,0.1241 -17.16114,2.51451 -30.446679,11.35497 -37.13939,24.71328 -2.4441,4.8783 -4.12831,10.82187 -4.8167,16.99815 -0.14746,1.32298 -0.2691,2.76624 -0.27031,3.20723 l -0.002,0.80181 h 45.83671 c 42.949357,0 45.836697,-0.0286 45.836727,-0.45403 z"
       id="path981"
       inkscape:connector-curvature="0"
       sodipodi:nodetypes="ccsscsccccscssscccscsccssscccssscscccsssccsccscssssccsscssssssccscc" />
    <path
       style="opacity:1;vector-effect:none;fill:#2d527c;fill-opacity:1;stroke:none;stroke-width:0.26998299;stroke-linecap:butt;stroke-linejoin:miter;stroke-miterlimit:4;stroke-dasharray:none;stroke-dashoffset:0;stroke-opacity:1"
       d="m 90.126374,90.88026 c 0.422269,-1.11065 4.030419,-8.22903 5.319191,-10.49402 2.896399,-5.09038 5.580755,-8.418997 6.789475,-8.418997 0.89118,0 1.37083,1.243666 1.53103,3.969757 l 0.15149,2.57776 1.59099,0.1979 c 2.74477,0.34143 4.42257,1.09701 4.42257,1.99167 0,1.91139 -7.09898,5.93848 -17.105245,9.703421 -1.102482,0.41482 -2.21724,0.839039 -2.477222,0.9427 -0.409488,0.16328 -0.439208,0.100389 -0.222279,-0.470191 z"
       id="path983"
       inkscape:connector-curvature="0" />
    <path
       style="opacity:1;vector-effect:none;fill:#2d527c;fill-opacity:1;stroke:none;stroke-width:0.26998299;stroke-linecap:butt;stroke-linejoin:miter;stroke-miterlimit:4;stroke-dasharray:none;stroke-dashoffset:0;stroke-opacity:1"
       d="m 72.384003,83.08555 c -1.97693,-3.45869 -5.874319,-11.161554 -6.882609,-13.602906 -1.554872,-3.764783 -1.932551,-6.108221 -0.984441,-6.108221 0.441241,0 3.076221,1.833565 4.930281,3.430764 l 1.345361,1.158976 0.283268,-0.758071 c 0.629891,-1.685679 1.391621,-3.02986 1.716982,-3.02986 0.908238,0 1.398079,3.395041 1.643898,11.393668 0.1767,5.74933 -0.004,9.98789 -0.425288,9.98789 -0.117901,0 -0.850252,-1.11251 -1.627452,-2.47224 z"
       id="path985"
       inkscape:connector-curvature="0" />
    <path
       style="opacity:1;vector-effect:none;fill:#2d527c;fill-opacity:1;stroke:none;stroke-width:0.26998299;stroke-linecap:butt;stroke-linejoin:miter;stroke-miterlimit:4;stroke-dasharray:none;stroke-dashoffset:0;stroke-opacity:1"
       d="m 55.100112,88.96239 c -9.210058,-4.07464 -16.005479,-7.81367 -17.022918,-9.36648 -0.722471,-1.10263 -0.19336,-1.2912 3.740769,-1.3332 1.93975,-0.0207 3.611682,-0.0508 3.715411,-0.0668 0.10373,-0.016 0.01349,-0.52537 -0.200451,-1.13185 -0.401529,-1.13805 -0.531709,-3.17363 -0.202959,-3.17363 0.777349,0 3.26158,2.44073 6.800829,6.68174 1.95543,2.34316 7.445632,9.656461 7.445632,9.91806 0,0.35619 -0.0925,0.323152 -4.276313,-1.52783 z"
       id="path987"
       inkscape:connector-curvature="0" />
  </g>
</svg>
